HIERARCHY
ROOT Hips
{
 OFFSET 0.000000 0.000000 0.000000
 CHANNELS 6 Xposition Yposition Zposition Yrotation Xrotation Zrotation
 JOINT Chest
 {
  OFFSET 0.000000 9.585900 0.002600
  CHANNELS 3 Yrotation Xrotation Zrotation
  JOINT Chest2
  {
   OFFSET 0.000000 9.601200 -0.005300
   CHANNELS 3 Yrotation Xrotation Zrotation
   JOINT Chest3
   {
    OFFSET 0.000000 9.561800 0.000000
    CHANNELS 3 Yrotation Xrotation Zrotation
    JOINT Chest4
    {
     OFFSET 0.000000 9.552100 0.000000
     CHANNELS 3 Yrotation Xrotation Zrotation
     JOINT Neck
     {
      OFFSET 0.000000 14.453000 0.000000
      CHANNELS 3 Yrotation Xrotation Zrotation
      JOINT Head
      {
       OFFSET 0.000000 8.936500 -0.011300
       CHANNELS 3 Yrotation Xrotation Zrotation
       End Site
       {
        OFFSET 0.000000 17.073600 -0.006000
       }
      }
     }
     JOINT RightCollar
     {
      OFFSET -2.921100 9.558500 0.000000
      CHANNELS 3 Yrotation Xrotation Zrotation
      JOINT RightShoulder
      {
       OFFSET -13.519700 0.000000 0.000000
       CHANNELS 3 Yrotation Xrotation Zrotation
       JOINT RightElbow
       {
        OFFSET 0.000000 -29.696600 0.000000
        CHANNELS 3 Yrotation Xrotation Zrotation
        JOINT RightWrist
        {
         OFFSET 0.000000 -24.004700 0.000000
         CHANNELS 3 Yrotation Xrotation Zrotation
         End Site
         {
          OFFSET 0.000000 -17.728500 0.000000
         }
        }
       }
      }
     }
     JOINT LeftCollar
     {
      OFFSET 2.921100 9.558500 0.000000
      CHANNELS 3 Yrotation Xrotation Zrotation
      JOINT LeftShoulder
      {
       OFFSET 13.519700 0.000000 0.000000
       CHANNELS 3 Yrotation Xrotation Zrotation
       JOINT LeftElbow
       {
        OFFSET 0.000000 -29.696600 0.000000
        CHANNELS 3 Yrotation Xrotation Zrotation
        JOINT LeftWrist
        {
         OFFSET 0.000000 -24.004700 0.000000
         CHANNELS 3 Yrotation Xrotation Zrotation
         End Site
         {
          OFFSET 0.000000 -17.728500 0.000000
         }
        }
       }
      }
     }
    }
   }
  }
 }
 JOINT RightHip
 {
  OFFSET -7.771700 -0.012900 -0.001300
  CHANNELS 3 Yrotation Xrotation Zrotation
  JOINT RightKnee
  {
   OFFSET 0.000000 -40.869800 0.001200
   CHANNELS 3 Yrotation Xrotation Zrotation
   JOINT RightAnkle
   {
    OFFSET 0.000000 -39.717900 0.002100
    CHANNELS 3 Yrotation Xrotation Zrotation
    JOINT RightToe
    {
     OFFSET 0.000000 -4.965400 11.033500
     CHANNELS 3 Yrotation Xrotation Zrotation
     End Site
     {
      OFFSET 0.000000 -1.423100 5.872300
     }
    }
   }
  }
 }
 JOINT LeftHip
 {
  OFFSET 7.771700 -0.012900 -0.001300
  CHANNELS 3 Yrotation Xrotation Zrotation
  JOINT LeftKnee
  {
   OFFSET 0.000000 -40.869800 0.001200
   CHANNELS 3 Yrotation Xrotation Zrotation
   JOINT LeftAnkle
   {
    OFFSET 0.000000 -39.717900 0.002100
    CHANNELS 3 Yrotation Xrotation Zrotation
    JOINT LeftToe
    {
     OFFSET 0.000000 -4.965400 11.033500
     CHANNELS 3 Yrotation Xrotation Zrotation
     End Site
     {
      OFFSET 0.000000 -1.423100 5.872300
     }
    }
   }
  }
 }
}
MOTION
Frames: 8
Frame Time: 0.008333
0.000000 85.388000 0.000000 0.000000 -5.767877 0.000000 0.000000 11.653817 0.000000 0.000000 -5.885947 0.000000 0.000000 -0.000000 0.000000 0.000000 -0.000000 0.000000 0.000000 12.528835 0.000000 0.000000 0.711642 0.000000 0.000000 -0.000000 0.000000 0.000000 0.000000 -90.000000 0.000000 -2.309062 0.000000 0.000000 2.309062 0.000000 0.000000 -0.000000 0.000000 0.000000 -0.000000 90.000000 0.000000 -2.309062 0.000000 0.000000 2.309062 0.000000 0.000000 8.520406 0.000000 0.000000 1.905762 0.000000 -0.000000 -4.658285 0.000000 0.000000 -0.000000 0.000000 0.000000 8.520406 0.000000 0.000000 1.905762 0.000000 -0.000000 -4.658285 0.000000 0.000000 -0.000000 0.000000
-72.050525 47.664652 -5.079741 178.135954 -20.348968 -4.356783 -0.020986 18.658481 2.962004 -0.000920 2.163661 0.372488 0.028698 3.593086 0.614424 0.322492 16.124863 2.849968 -0.219823 16.283902 0.081979 -0.486242 -5.552537 0.258592 -0.608335 -6.388084 -8.923782 -12.580277 -42.707129 -46.833218 -38.105913 -71.242327 46.008475 -0.693951 -1.421833 -19.226709 -4.197650 -8.359427 5.564075 13.541072 -40.281138 50.232564 9.676544 -63.946091 -10.380132 1.377144 11.242246 20.203674 2.176250 -64.602353 -6.975479 -141.210342 76.411785 -132.972373 -11.785261 -14.525562 -1.391699 0.044093 -0.107947 0.163738 -5.924083 -67.025958 12.933710 -113.119056 82.383502 -117.442533 7.701203 -8.133549 5.314923 0.022119 0.179053 0.014338
-72.045739 47.665506 -5.083012 178.081406 -20.418609 -4.353390 0.009461 18.693699 2.967376 -0.000174 2.167307 0.373293 0.034089 3.602802 0.614376 0.325481 16.131881 2.855967 -0.221682 16.298093 0.073647 -0.638215 -5.520216 0.331476 -0.604720 -6.347939 -8.889439 -12.657166 -42.611265 -46.669932 -38.325465 -71.436521 46.274436 -0.708407 -1.416251 -19.338462 -4.239124 -8.330411 5.516304 13.602601 -40.166296 50.099819 9.797700 -64.239059 -10.558084 1.359535 11.299936 20.148975 2.201413 -64.546668 -6.924629 -141.183342 76.400522 -132.943227 -11.801903 -14.505037 -1.422284 0.042520 -0.124483 0.169981 -6.014231 -66.955556 13.024383 -113.279966 82.397623 -117.603906 7.745136 -8.122545 5.265483 0.015869 0.159564 0.009366
-72.043300 47.663726 -5.080782 178.038118 -20.458144 -4.339359 0.019466 18.697308 2.956625 0.000248 2.170916 0.374242 0.037742 3.610509 0.615857 0.339560 16.148674 2.856251 -0.279222 16.307692 0.091584 -0.744199 -5.483071 0.373143 -0.611365 -6.314037 -8.847085 -12.697784 -42.558004 -46.563815 -38.508896 -71.577088 46.510037 -0.718330 -1.407932 -19.446591 -4.337658 -8.302562 5.447704 13.689495 -40.059767 50.006140 9.870955 -64.550320 -10.683132 1.321819 11.357615 20.088005 2.240706 -64.518743 -6.907453 -141.149819 76.401215 -132.912724 -11.817386 -14.490698 -1.449723 0.043013 -0.126409 0.190260 -6.074434 -66.917488 13.081798 -113.394927 82.414338 -117.733107 7.777126 -8.114491 5.250864 -0.011366 0.149082 -0.008706
-72.039208 47.660680 -5.075853 177.975844 -20.487486 -4.327943 0.056780 18.696798 2.957980 -0.009370 2.166350 0.374001 0.008363 3.590698 0.620259 0.387461 16.193220 2.852413 -0.341141 16.318309 0.110604 -0.843665 -5.431649 0.412258 -0.608950 -6.293386 -8.829426 -12.751785 -42.507340 -46.457045 -38.684250 -71.686957 46.740416 -0.723458 -1.402069 -19.539534 -4.410728 -8.276351 5.397508 13.777986 -39.950012 49.874679 9.906724 -64.877128 -10.767867 1.271654 11.417460 20.023353 2.277347 -64.498599 -6.875402 -141.061257 76.407311 -132.825791 -11.805420 -14.473523 -1.479811 0.043547 -0.122723 0.178378 -6.149886 -66.889265 13.171684 -113.510394 82.430328 -117.866632 7.825203 -8.114414 5.233011 -0.041280 0.144459 -0.023841
-72.030638 47.658669 -5.073697 177.921912 -20.539405 -4.344802 0.082677 18.711395 2.978102 0.009458 2.186227 0.377504 -0.010492 3.581579 0.620305 0.395419 16.201367 2.862374 -0.392827 16.342469 0.120705 -0.933076 -5.363271 0.445343 -0.591202 -6.265082 -8.823462 -12.806008 -42.459553 -46.349574 -38.851972 -71.783345 46.956733 -0.723862 -1.405446 -19.606763 -4.458827 -8.242599 5.342144 13.864764 -39.838120 49.725150 9.916894 -65.210161 -10.821525 1.221616 11.477147 19.960126 2.242365 -64.466265 -6.761513 -140.965565 76.387675 -132.737751 -11.800284 -14.439945 -1.496262 0.063797 -0.144888 0.133129 -6.228489 -66.838016 13.279399 -113.575347 82.418304 -117.905685 7.828009 -8.127485 5.179214 -0.008899 0.156762 -0.012894
-72.020441 47.656022 -5.070372 177.864585 -20.587680 -4.370007 0.103234 18.713206 3.002915 0.009340 2.191784 0.378713 -0.000744 3.595994 0.622491 0.357607 16.204780 2.871386 -0.408551 16.387339 0.115851 -1.004136 -5.289847 0.478633 -0.542164 -6.209939 -8.806094 -12.836392 -42.444477 -46.265178 -39.020233 -71.861835 47.168792 -0.725251 -1.414387 -19.648828 -4.472318 -8.203918 5.275057 13.957638 -39.722057 49.572339 9.924673 -65.541235 -10.865502 1.181498 11.529999 19.899833 2.190513 -64.447978 -6.613399 -140.842525 76.352180 -132.623528 -11.811282 -14.387340 -1.521125 0.097026 -0.183040 0.140536 -6.327651 -66.789770 13.412748 -113.657510 82.413407 -117.966840 7.848113 -8.145410 5.127751 0.007744 0.171789 -0.003690
-72.009560 47.654158 -5.069675 177.802666 -20.656121 -4.397198 0.162319 18.759458 3.046010 -0.018742 2.169313 0.376419 0.027169 3.624484 0.624795 0.357646 16.211804 2.872820 -0.462142 16.416698 0.134672 -1.071534 -5.210593 0.516326 -0.553953 -6.181746 -8.769233 -12.870973 -42.426831 -46.177011 -39.208258 -71.927000 47.406087 -0.729731 -1.420879 -19.675359 -4.552855 -8.184417 5.231825 14.057821 -39.600625 49.417537 9.960204 -65.864849 -10.934939 1.156868 11.572833 19.846574 2.134900 -64.397656 -6.474137 -140.740559 76.335223 -132.520900 -11.808463 -14.347611 -1.545576 0.112808 -0.210544 0.150070 -6.592140 -66.713184 13.654189 -113.915056 82.428035 -118.215657 7.879206 -8.159248 5.027740 0.041195 0.177062 -0.001922
